<svg width="16" height="16" viewBox="0 0 24 24" fill="none" xmlns="http://www.w3.org/2000/svg" color="#B6BAC2"><path d="M12 0c1.73 0 3.299.62 4.421 1.745 1.137 1.14 1.69 2.674 1.56 4.318C17.72 9.337 15.04 12 12 12c-3.042 0-5.725-2.664-5.981-5.938-.13-1.66.42-3.196 1.55-4.327C8.687.616 10.26 0 12 0zM1.846 24h20.308c.265.003.529-.049.77-.152.242-.103.455-.255.626-.445.375-.416.526-.985.414-1.56-.487-2.508-2.007-4.614-4.395-6.093-2.122-1.313-4.81-2.036-7.569-2.036-2.76 0-5.447.723-7.569 2.036C2.043 17.229.523 19.336.036 21.844c-.112.575.04 1.143.414 1.56.17.19.384.34.626.444.241.103.505.155.77.152z" fill="#B6BAC2"></path></svg>