<svg xmlns="http://www.w3.org/2000/svg" viewBox="0 0 39 32"><symbol xmlns="http://www.w3.org/2000/svg" id="85051" viewBox="0 0 39 32">
		<path fill="#7348ff" style="fill: var(--color1, #7348ff)" d="M36.557 16.207h-34.408l1.475 12.158c0.246 1.842 1.782 3.254 3.687 3.254h24.209c1.843 0 3.441-1.412 3.687-3.254l1.352-12.158z"></path>
		<path fill="#15b742" style="fill: var(--color2, #15b742)" d="M16.649 23.883c-5.038 0-9.524 2.272-12.535 5.895 0.676 1.105 1.843 1.781 3.134 1.781h24.209c1.843 0 3.441-1.412 3.687-3.254l1.475-12.096h-6.083c-2.949 4.667-8.049 7.675-13.886 7.675z"></path>
		<path fill="#15b742" style="fill: var(--color2, #15b742)" d="M19.404 11.989c-0.029 0.027-0.075 0.027-0.104-0l-0.788-0.74c-2.982-2.792-4.951-4.634-4.951-6.894 0-1.842 1.401-3.288 3.185-3.288 0.976 0 1.915 0.455 2.546 1.179 0.031 0.036 0.088 0.036 0.119 0 0.631-0.724 1.57-1.179 2.546-1.179 1.783 0 3.185 1.447 3.185 3.288 0 2.26-1.969 4.102-4.951 6.9l-0.788 0.735z"></path>
		<path fill="#7348ff" style="fill: var(--color1, #7348ff)" d="M16.48 9.31c1.214-0.462 2.345-1.18 3.355-2.102v-0.031c1.543-1.459 2.849-3.375 3.738-5.67-0.471-0.281-1.022-0.441-1.615-0.441-0.976 0-1.915 0.455-2.546 1.179-0.031 0.036-0.088 0.036-0.119 0-0.631-0.724-1.57-1.179-2.546-1.179-1.783 0-3.185 1.447-3.185 3.288 0 1.695 1.107 3.154 2.918 4.955z"></path>
		<path fill="none" stroke="#505852" style="stroke: var(--color3, #505852)" stroke-linejoin="miter" stroke-linecap="butt" stroke-miterlimit="4" stroke-width="0.6095" d="M18.722 11.027l-0-0c-1.497-1.402-2.715-2.543-3.563-3.613-0.844-1.065-1.291-2.025-1.291-3.058 0-1.682 1.274-2.984 2.88-2.984 0.883 0 1.739 0.413 2.316 1.075 0.153 0.175 0.426 0.175 0.579 0 0.577-0.662 1.433-1.075 2.316-1.075 1.606 0 2.88 1.301 2.88 2.984 0 1.033-0.447 1.993-1.291 3.059-0.847 1.069-2.062 2.21-3.556 3.612l-0.006 0.006-0.001 0.001-0.63 0.588-0.632-0.594z"></path>
		<path fill="#fffbef" style="fill: var(--color4, #fffbef)" d="M19.353 18.663c-1.045 0-1.905 0.86-1.905 1.903v6.631c0 1.044 0.86 1.903 1.905 1.903s1.905-0.86 1.905-1.903v-6.57c0-1.105-0.86-1.965-1.905-1.965zM11.672 18.663c-1.045 0-1.905 0.86-1.905 1.904v6.631c0 1.044 0.86 1.904 1.905 1.904s1.905-0.86 1.905-1.904v-6.57c0-1.105-0.86-1.965-1.905-1.965zM25.128 20.567c0-1.044 0.86-1.903 1.905-1.903s1.905 0.86 1.905 1.965v6.57c0 1.044-0.86 1.903-1.905 1.903s-1.905-0.86-1.905-1.903v-6.631z"></path>
		<path fill="#505852" style="fill: var(--color3, #505852)" d="M17.753 20.567c0-0.875 0.724-1.599 1.6-1.599v-0.61c-1.213 0-2.21 0.996-2.21 2.208h0.61zM17.753 27.198v-6.631h-0.61v6.631h0.61zM19.353 28.797c-0.877 0-1.6-0.723-1.6-1.599h-0.61c0 1.212 0.997 2.208 2.21 2.208v-0.61zM20.953 27.198c0 0.875-0.724 1.599-1.6 1.599v0.61c1.213 0 2.21-0.996 2.21-2.208h-0.61zM20.953 20.628v6.57h0.61v-6.57h-0.61zM19.353 18.968c0.87 0 1.6 0.717 1.6 1.66h0.61c0-1.267-0.991-2.27-2.21-2.27v0.61zM10.072 20.567c0-0.875 0.724-1.599 1.6-1.599v-0.61c-1.213 0-2.21 0.996-2.21 2.208h0.61zM10.072 27.198v-6.631h-0.61v6.631h0.61zM11.672 28.797c-0.876 0-1.6-0.723-1.6-1.599h-0.61c0 1.212 0.997 2.208 2.21 2.208v-0.61zM13.272 27.198c0 0.875-0.724 1.599-1.6 1.599v0.61c1.213 0 2.21-0.996 2.21-2.208h-0.61zM13.272 20.628v6.57h0.61v-6.57h-0.61zM11.672 18.968c0.87 0 1.6 0.717 1.6 1.66h0.61c0-1.267-0.991-2.27-2.21-2.27v0.61zM27.033 18.359c-1.213 0-2.21 0.996-2.21 2.208h0.61c0-0.875 0.724-1.599 1.6-1.599v-0.61zM29.242 20.628c0-1.267-0.99-2.27-2.21-2.27v0.61c0.87 0 1.6 0.717 1.6 1.66h0.61zM29.242 27.198v-6.57h-0.61v6.57h0.61zM27.033 29.406c1.213 0 2.21-0.996 2.21-2.208h-0.61c0 0.875-0.724 1.599-1.6 1.599v0.61zM24.823 27.198c0 1.212 0.997 2.208 2.21 2.208v-0.61c-0.876 0-1.6-0.723-1.6-1.599h-0.61zM24.823 20.567v6.631h0.61v-6.631h-0.61z"></path>
		<path fill="none" stroke="#505852" style="stroke: var(--color3, #505852)" stroke-linejoin="miter" stroke-linecap="butt" stroke-miterlimit="4" stroke-width="0.6095" d="M36.557 16.207h-34.408l1.475 12.158c0.246 1.842 1.782 3.254 3.687 3.254h24.209c1.843 0 3.441-1.412 3.687-3.254l1.352-12.158z"></path>
		<path fill="#7348ff" style="fill: var(--color1, #7348ff)" d="M38.4 12.831c-0.061-0.246-0.307-0.43-0.553-0.43h-5.591c-0.43 1.351-0.983 2.64-1.782 3.807h7.312c0.246 0 0.492-0.184 0.553-0.43v-2.947h0.061z"></path>
		<path fill="none" stroke="#505852" style="stroke: var(--color3, #505852)" stroke-linejoin="miter" stroke-linecap="butt" stroke-miterlimit="4" stroke-width="0.6095" d="M37.785 16.208h-36.866c-0.307 0-0.614-0.246-0.614-0.614v-2.579c0-0.307 0.246-0.614 0.614-0.614h36.866c0.307 0 0.614 0.246 0.614 0.614v2.64c0 0.307-0.246 0.553-0.614 0.553z"></path>
		<path fill="#fffbef" style="fill: var(--color4, #fffbef); stroke: var(--color3, #505852)" stroke="#505852" stroke-linejoin="miter" stroke-linecap="butt" stroke-miterlimit="4" stroke-width="0.6095" d="M19.352 13.629c-0.307 0-0.614-0.123-0.86-0.368-0.492-0.491-0.492-1.228 0-1.719l10.876-10.868c0.491-0.491 1.229-0.491 1.72 0s0.492 1.228 0 1.719l-10.876 10.868c-0.246 0.246-0.553 0.368-0.86 0.368z"></path>
	</symbol><use xlink:href="#85051"></use></svg>