<svg xmlns="http://www.w3.org/2000/svg" viewBox="0 0 32 32"><symbol xmlns="http://www.w3.org/2000/svg" id="5839" viewBox="0 0 32 32">
		<path d="M16 32h-6c-0.029 0-0.064 0.001-0.098 0.001-5.469 0-9.902-4.433-9.902-9.902 0-0.035 0-0.069 0.001-0.104l-0 0.005v-12c-0-0.029-0.001-0.064-0.001-0.098 0-5.469 4.433-9.902 9.902-9.902 0.035 0 0.069 0 0.104 0.001l-0.005-0h6c0.034-0.002 0.073-0.003 0.113-0.003 1.044 0 1.89 0.846 1.89 1.89 0 0.040-0.001 0.079-0.004 0.119l0-0.005c0.002 0.034 0.003 0.074 0.003 0.113 0 1.044-0.846 1.89-1.89 1.89-0.040 0-0.079-0.001-0.119-0.004l0.005 0h-6c-0.032-0.001-0.071-0.001-0.109-0.001-3.254 0-5.892 2.638-5.892 5.892 0 0.038 0 0.077 0.001 0.115l-0-0.006v12c-0.001 0.032-0.001 0.071-0.001 0.109 0 3.254 2.638 5.892 5.892 5.892 0.038 0 0.077-0 0.115-0.001l-0.006 0h6c1.105 0 2 0.895 2 2s-0.895 2-2 2v0zM25 23.6c-0.015 0-0.033 0.001-0.051 0.001-0.535 0-1.016-0.231-1.348-0.599l-0.001-0.002c-0.37-0.353-0.6-0.85-0.6-1.4s0.23-1.047 0.599-1.399l0.001-0.001 2.2-2.2h-13.8c-0.034 0.002-0.073 0.003-0.113 0.003-1.044 0-1.89-0.846-1.89-1.89 0-0.040 0.001-0.079 0.004-0.119l-0 0.005c-0.002-0.034-0.003-0.073-0.003-0.113 0-1.044 0.846-1.89 1.89-1.89 0.040 0 0.079 0.001 0.119 0.004l-0.005-0h13.8l-2.2-2.2c-0.35-0.357-0.566-0.846-0.566-1.386 0-1.094 0.886-1.98 1.98-1.98 0.54 0 1.029 0.216 1.386 0.566l4.2 4.2c0.74 0.706 1.2 1.699 1.2 2.8s-0.46 2.094-1.199 2.799l-0.002 0.001-4.2 4.2c-0.334 0.369-0.815 0.601-1.349 0.601-0.018 0-0.036-0-0.053-0.001l0.003 0z"></path>
	</symbol><use xlink:href="#5839"></use></svg>