<?xml version="1.0" standalone="no"?>
<!DOCTYPE svg PUBLIC "-//W3C//DTD SVG 20010904//EN"
 "http://www.w3.org/TR/2001/REC-SVG-20010904/DTD/svg10.dtd">
<svg version="1.0" xmlns="http://www.w3.org/2000/svg"
 width="1024.000000pt" height="1024.000000pt" viewBox="0 0 1024.000000 1024.000000"
 preserveAspectRatio="xMidYMid meet">
    <g transform="translate(0.000000,1024.000000) scale(0.100000,-0.100000)"
    stroke="none">
    <path d="M5025 8860 c-23 -12 -383 -346 -855 -794 l-815 -775 -3 350 -2 349
    -575 0 -575 0 0 -898 0 -898 -430 -408 c-236 -224 -439 -423 -451 -443 -15
    -23 -23 -57 -26 -101 -4 -59 -2 -73 24 -122 18 -34 45 -66 72 -85 37 -26 53
    -30 119 -33 66 -3 83 0 119 20 24 13 805 747 1765 1659 948 900 1726 1638
    1729 1640 4 2 784 -734 1733 -1636 950 -902 1746 -1650 1769 -1663 36 -20 53
    -23 119 -20 66 3 82 7 119 33 88 62 124 193 80 291 -14 31 -451 451 -1844
    1775 -1037 984 -1844 1744 -1868 1757 -56 29 -147 30 -204 2z"/>
    <path d="M5073 7757 c-30 -17 -2593 -2480 -2620 -2519 l-23 -31 0 -1834 c0
    -1620 2 -1837 15 -1863 33 -63 -14 -60 980 -60 l905 0 0 1103 c0 1088 0 1102
    20 1135 39 64 19 62 775 62 756 0 736 2 775 -62 20 -33 20 -47 20 -1135 l0
    -1103 905 0 c994 0 947 -3 980 60 13 26 15 242 15 1852 -1 1411 -3 1828 -13
    1844 -7 12 -87 93 -178 180 -91 88 -675 654 -1298 1259 -623 605 -1142 1105
    -1154 1112 -12 7 -35 12 -52 12 -16 0 -40 -5 -52 -12z"/>
    </g>
</svg>
