<svg version="1.0" xmlns="http://www.w3.org/2000/svg"
 width="512.000000pt" height="512.000000pt" viewBox="0 0 512.000000 512.000000"
 preserveAspectRatio="xMidYMid meet">

<g transform="translate(0.000000,512.000000) scale(0.100000,-0.100000)"
fill="#000000" stroke="none">
<path d="M2415 5114 c-291 -24 -591 -120 -831 -265 -473 -285 -802 -761 -900
-1300 -23 -127 -33 -330 -23 -439 48 -484 467 -1270 1193 -2235 225 -300 687
-865 706 -865 19 0 481 565 706 865 628 835 1027 1535 1153 2025 40 152 51
274 40 435 -17 265 -77 490 -190 717 -282 565 -797 944 -1412 1043 -99 15
-350 26 -442 19z m393 -609 c351 -68 655 -273 853 -575 346 -528 263 -1233
-197 -1670 -177 -168 -400 -284 -644 -337 -119 -25 -401 -25 -520 0 -580 124
-1002 601 -1049 1183 -23 298 50 585 211 828 224 338 551 537 968 590 68 8
296 -3 378 -19z"/>
<path d="M2376 4054 c-377 -84 -652 -408 -673 -791 -22 -394 218 -746 590
-867 340 -111 728 6 941 283 133 173 195 370 183 584 -13 237 -120 451 -305
610 -74 63 -232 146 -327 172 -87 24 -320 29 -409 9z"/>
</g>
</svg>
