<?xml version="1.0" standalone="no"?>
<!DOCTYPE svg PUBLIC "-//W3C//DTD SVG 20010904//EN"
 "http://www.w3.org/TR/2001/REC-SVG-20010904/DTD/svg10.dtd">
<svg version="1.0" xmlns="http://www.w3.org/2000/svg" width="512.000000pt" height="512.000000pt" viewBox="0 0 512.000000 512.000000" preserveAspectRatio="xMidYMid meet">
    <g transform="translate(0.000000,512.000000) scale(0.100000,-0.100000)" stroke="none">
    <path d="M825 5109 c-133 -32 -295 -159 -414 -326 -73 -102 -183 -323 -235
    -471 -69 -198 -126 -471 -158 -762 -19 -175 -16 -651 6 -830 44 -369 125 -687
    235 -924 41 -88 68 -116 114 -116 37 0 77 40 77 77 0 15 -23 80 -50 143 -27
    63 -50 123 -50 133 0 15 14 17 153 17 139 0 156 2 203 24 207 96 187 406 -30
    471 -37 11 -103 15 -252 15 l-202 0 -6 28 c-3 15 -10 70 -16 122 -6 52 -12
    116 -15 143 l-6 47 144 0 c102 0 156 4 188 15 102 35 169 130 169 239 -1 106
    -52 188 -145 232 -46 22 -63 24 -203 24 l-153 0 6 48 c3 26 9 90 15 142 6 52
    13 107 16 122 l5 26 222 4 c218 3 223 4 272 30 94 49 140 126 139 228 -1 100
    -47 176 -135 225 -53 29 -58 30 -216 33 l-161 4 40 96 c129 311 269 489 438
    557 28 11 72 18 117 18 64 0 81 -4 147 -36 40 -21 98 -58 127 -85 213 -191
    402 -655 459 -1122 14 -122 25 -149 66 -166 40 -17 76 -6 100 31 20 30 16 91
    -16 281 -135 780 -484 1279 -890 1273 -36 -1 -83 -5 -105 -10z m-171 -1038
    c33 -31 35 -85 4 -118 -21 -23 -26 -23 -215 -23 -180 0 -194 1 -190 18 3 9 8
    31 12 47 3 17 11 47 16 68 l10 38 169 -3 c162 -3 169 -4 194 -27z m-169 -856
    c27 -27 33 -79 12 -106 -25 -33 -55 -39 -191 -39 l-136 0 0 85 0 85 145 0
    c142 0 147 -1 170 -25z m170 -850 c34 -33 34 -87 0 -120 -24 -25 -27 -25 -194
    -25 l-170 0 -11 43 c-6 23 -15 58 -21 77 -5 19 -9 38 -9 43 0 4 86 7 190 7
    189 0 191 0 215 -25z"/>
    <path d="M2500 3573 c-90 -10 -286 -56 -380 -88 -406 -142 -669 -394 -736
    -705 -31 -147 -12 -295 56 -436 50 -105 87 -144 132 -144 72 0 106 68 68 135
    -77 133 -100 203 -100 305 0 224 149 433 421 592 437 254 1197 229 1630 -54
    354 -231 436 -597 197 -888 l-28 -35 0 -537 0 -537 26 -20 c37 -29 85 -27 115
    5 l24 26 3 499 3 500 39 58 c86 126 121 239 121 386 0 296 -186 569 -506 742
    l-60 33 189 0 c214 0 346 -15 507 -60 353 -97 622 -303 701 -537 55 -162 19
    -341 -101 -509 l-41 -57 0 -1039 0 -1038 -499 0 -500 0 -27 -24 c-39 -33 -39
    -89 0 -122 l27 -24 555 0 556 0 29 29 29 29 0 1067 0 1066 31 45 c80 117 139
    293 139 418 0 379 -368 739 -890 871 -207 53 -249 55 -1000 53 -382 -1 -711
    -3 -730 -5z"/>
    <path d="M2613 3150 c-56 -23 -68 -111 -20 -145 54 -38 137 0 137 64 0 57 -66
    102 -117 81z"/>
    <path d="M2178 2974 c-46 -24 -53 -90 -15 -131 46 -51 137 -15 137 54 0 45 -9
    62 -41 78 -35 18 -47 18 -81 -1z"/>
    <path d="M3035 2978 c-49 -29 -60 -87 -24 -132 21 -26 65 -35 104 -20 25 10
    47 62 40 94 -11 52 -77 84 -120 58z"/>
    <path d="M2453 2642 c-13 -2 -32 -15 -43 -29 -45 -57 -7 -135 65 -135 30 0 45
    6 62 27 55 64 2 150 -84 137z"/>
    <path d="M2781 2634 c-56 -24 -65 -108 -15 -141 82 -53 174 43 114 119 -24 32
    -59 39 -99 22z"/>
    <path d="M1675 2038 c-480 -48 -945 -266 -1275 -598 -211 -213 -345 -448 -385
    -679 -19 -105 -19 -177 0 -266 21 -99 60 -171 129 -241 166 -165 415 -231 951
    -250 165 -6 195 -4 222 9 52 27 62 96 20 135 -20 18 -44 21 -272 31 -277 12
    -416 29 -549 67 -254 71 -363 207 -341 428 19 200 138 423 330 625 76 80 241
    221 258 221 3 0 7 -71 9 -157 3 -140 6 -163 25 -199 96 -180 359 -179 456 1
    21 38 22 57 27 330 l5 290 125 31 c69 17 144 34 168 37 l42 5 0 -172 c0 -201
    12 -256 67 -317 122 -135 337 -107 417 52 25 52 26 58 26 246 l0 193 43 -6
    c23 -3 99 -19 169 -36 l126 -31 4 -281 3 -281 28 -57 c44 -90 122 -137 227
    -137 106 0 182 45 226 135 25 52 28 69 33 207 l6 149 65 -48 c91 -69 234 -214
    313 -319 78 -104 169 -281 192 -375 12 -44 16 -95 13 -160 -3 -84 -7 -104 -36
    -162 -114 -233 -400 -287 -1503 -288 l-456 0 -21 -23 c-31 -33 -29 -87 4 -118
    l26 -24 351 -3 c415 -4 948 12 1101 33 423 57 643 204 697 464 17 80 6 268
    -21 361 -85 298 -349 622 -685 843 -393 257 -898 382 -1360 335z m248 -164
    l37 -7 0 -183 c0 -170 -2 -186 -20 -204 -27 -27 -64 -34 -96 -18 -48 22 -54
    48 -54 235 l0 172 33 4 c57 7 61 7 100 1z m-813 -394 l0 -231 -25 -24 c-33
    -34 -87 -34 -120 0 -25 24 -25 25 -25 218 l0 194 78 36 c42 20 80 36 85 37 4
    0 7 -104 7 -230z m1630 192 l75 -37 0 -192 c0 -189 0 -192 -24 -217 -31 -33
    -85 -35 -118 -4 -23 21 -23 24 -23 255 0 128 3 233 8 233 4 0 41 -17 82 -38z"/>
    </g>
</svg>
