<?xml version="1.0" standalone="no"?>
<!DOCTYPE svg PUBLIC "-//W3C//DTD SVG 20010904//EN"
 "http://www.w3.org/TR/2001/REC-SVG-20010904/DTD/svg10.dtd">
<svg version="1.0" xmlns="http://www.w3.org/2000/svg" width="512.000000pt" height="512.000000pt" viewBox="0 0 512.000000 512.000000" preserveAspectRatio="xMidYMid meet">
    <g transform="translate(0.000000,512.000000) scale(0.100000,-0.100000)" stroke="none">
    <path d="M2501 4259 c-179 -36 -299 -225 -248 -392 17 -54 26 -48 -93 -67
    -361 -60 -738 -239 -1049 -500 -127 -107 -155 -134 -261 -260 -291 -346 -482
    -804 -515 -1237 l-7 -91 -127 -4 c-179 -5 -201 -24 -201 -174 0 -223 78 -445
    197 -560 55 -54 150 -101 228 -114 82 -13 4188 -13 4270 0 78 13 173 60 228
    114 119 115 197 337 197 560 0 150 -22 169 -201 174 l-127 4 -7 91 c-33 433
    -224 891 -515 1237 -106 126 -134 153 -261 260 -311 261 -688 440 -1049 500
    -119 19 -110 13 -93 67 18 61 12 145 -16 209 -58 131 -211 211 -350 183z m130
    -238 c55 -56 36 -147 -37 -171 -106 -35 -184 92 -105 171 23 23 38 29 71 29
    33 0 48 -6 71 -29z m214 -417 c921 -126 1640 -884 1730 -1826 l7 -68 -2022 0
    -2022 0 7 68 c96 999 890 1777 1880 1841 138 9 278 4 420 -15z m2058 -2156
    c-19 -172 -90 -310 -184 -359 -37 -19 -79 -19 -2159 -19 -2080 0 -2122 0
    -2159 19 -94 49 -165 187 -184 359 l-5 42 2348 0 2348 0 -5 -42z"/>
    <path d="M1705 3197 c-102 -54 -150 -85 -250 -161 -211 -159 -462 -466 -473
    -578 -4 -42 -1 -50 26 -78 23 -23 39 -30 69 -30 53 0 74 18 140 118 151 228
    328 395 566 529 112 64 141 97 133 153 -7 46 -55 90 -99 90 -18 0 -67 -19
    -112 -43z"/>
    </g>
</svg>
