<?xml version="1.0" standalone="no"?>
<!DOCTYPE svg PUBLIC "-//W3C//DTD SVG 20010904//EN"
 "http://www.w3.org/TR/2001/REC-SVG-20010904/DTD/svg10.dtd">
<svg version="1.0" xmlns="http://www.w3.org/2000/svg" width="512.000000pt" height="512.000000pt" viewBox="0 0 512.000000 512.000000" preserveAspectRatio="xMidYMid meet">
    <g transform="translate(0.000000,512.000000) scale(0.100000,-0.100000)" stroke="none">
    <path d="M2918 4528 c-172 -109 -198 -133 -198 -179 0 -30 44 -69 78 -69 18 0
    81 33 185 99 182 114 138 108 427 60 335 -56 672 -151 909 -258 354 -158 570
    -369 625 -609 14 -61 14 -62 -7 -67 -12 -3 -625 -102 -1362 -220 -737 -119
    -1360 -222 -1384 -230 -104 -35 -187 -111 -238 -221 l-28 -59 -5 -340 c-4
    -226 -9 -349 -17 -366 -18 -42 -72 -98 -117 -122 -31 -16 -59 -21 -111 -21
    -76 0 -117 15 -168 63 -45 41 -58 76 -68 179 -16 168 -88 281 -223 348 -53 26
    -90 36 -142 41 -171 14 -340 -93 -406 -257 -22 -53 -23 -70 -28 -490 l-5 -435
    -28 -47 c-60 -103 -170 -149 -281 -116 -55 16 -138 99 -154 154 -19 64 -17
    1040 2 1112 19 68 59 137 110 184 23 22 552 361 1176 754 624 394 1145 727
    1158 740 28 32 28 66 -1 100 -16 19 -34 27 -55 27 -23 0 -303 -172 -1179 -724
    -1259 -794 -1253 -790 -1321 -927 -61 -124 -63 -149 -60 -748 l3 -540 37 -76
    c65 -131 184 -213 326 -225 168 -14 339 95 404 257 22 53 23 70 28 490 5 475
    3 454 66 529 54 65 155 94 241 70 34 -9 62 -27 98 -63 56 -56 75 -103 75 -184
    0 -224 199 -398 434 -379 143 12 265 99 329 235 l32 67 5 340 c5 326 6 342 27
    381 25 47 76 94 119 112 16 6 638 110 1382 230 l1352 218 0 -278 0 -278 -22
    -5 c-13 -3 -624 -102 -1358 -220 -734 -118 -1345 -217 -1357 -220 -33 -8 -63
    -45 -63 -77 0 -36 40 -78 73 -78 13 0 625 97 1358 215 734 118 1342 215 1351
    215 17 0 18 -18 18 -235 l0 -235 -22 -5 c-13 -3 -918 -149 -2012 -326 -1094
    -176 -1998 -324 -2007 -330 -58 -31 -46 -123 19 -143 10 -3 911 138 2002 314
    1092 176 1993 320 2003 320 16 0 17 -20 17 -275 0 -151 -1 -275 -2 -276 -2 0
    -1081 -174 -2398 -387 l-2395 -388 -5 174 c-5 168 -6 174 -29 193 -32 26 -77
    24 -106 -6 l-25 -24 0 -231 0 -231 25 -24 c13 -14 33 -25 44 -25 11 0 1136
    180 2499 400 1364 220 2485 400 2491 400 7 0 23 11 36 25 l25 24 0 1091 c0
    1200 2 1165 -61 1317 -163 391 -718 696 -1541 848 -134 24 -362 55 -403 55
    -11 0 -100 -51 -197 -112z"/>
    </g>
</svg>
